<svg width="184" height="206" viewBox="0 0 184 206" fill="none" xmlns="http://www.w3.org/2000/svg">
<path d="M148 63.8351L89.3193 94.7614V164.94L139.674 126.481L148 63.8351Z" fill="#F6851F"/>
<path d="M74.6491 96.3474L42.5333 80.0912L47.6877 119.344L74.6491 140.358V96.3474Z" fill="#F15C3B"/>
<path d="M82.9754 41.2351L35 59.8702L82.9754 82.8667L132.14 59.8702L82.9754 41.2351Z" fill="#FABA14"/>
<path d="M57.6 29.3404C48.7552 21.2323 48.4807 0 48.4807 0C48.4807 0 54.0161 3.18201 57.6 5.15439C63.1219 8.19333 67.3315 8.31789 71.8737 12.6877C79.2146 19.75 80.5965 37.2702 80.5965 37.2702C80.5965 37.2702 64.6026 35.7596 57.6 29.3404Z" fill="#C9D52B"/>
<path d="M88.5263 24.979C85.5424 28.8919 85.7508 37.2702 85.7508 37.2702C85.7508 37.2702 93.2948 36.2451 97.2491 33.7018C104.017 29.3486 107.558 15.8597 107.558 15.8597C107.558 15.8597 102.927 17.7037 100.025 19.0316C95.4272 21.1346 91.5918 20.9589 88.5263 24.979Z" fill="#C9D52B"/>
<path d="M0 181.049C0 172.213 7.16344 165.049 16 165.049H184V189.049C184 197.886 176.837 205.049 168 205.049H0V181.049Z" fill="#FFA451"/>
<path d="M51.9765 193.673C51.7365 193.673 51.6005 193.513 51.5685 193.193C52.6405 188.089 53.3525 184.137 53.7045 181.337C53.5765 181.369 53.3445 181.385 53.0085 181.385C52.6565 181.385 52.3445 181.353 52.0725 181.289C51.8165 181.209 51.6885 181.081 51.6885 180.905C51.6885 180.617 51.7845 180.441 51.9765 180.377C52.1845 180.297 52.4005 180.265 52.6245 180.281C52.8485 180.281 52.9925 180.281 53.0565 180.281L53.8965 180.257L53.9685 179.657C54.2245 177.513 54.5925 175.313 55.0725 173.057C53.9365 173.361 53.0245 173.657 52.3365 173.945C51.6645 174.233 51.0645 174.529 50.5365 174.833C50.2165 175.009 50.0085 175.097 49.9125 175.097C49.6245 175.097 49.4805 174.953 49.4805 174.665C49.4805 174.281 49.8485 173.905 50.5845 173.537C51.3365 173.153 51.9605 172.889 52.4565 172.745C52.9525 172.601 53.9205 172.321 55.3605 171.905C55.5365 171.121 55.6725 170.593 55.7685 170.321C55.9445 170.081 56.1445 169.961 56.3685 169.961C56.6565 169.961 56.8005 170.081 56.8005 170.321C56.8005 170.449 56.7605 170.577 56.6805 170.705L56.5125 171.593C60.2245 170.665 64.5125 170.161 69.3765 170.081C69.6485 170.161 69.7845 170.297 69.7845 170.489C69.7845 170.633 69.7205 170.777 69.5925 170.921C69.4805 171.049 69.3445 171.137 69.1845 171.185C64.2725 171.265 59.9685 171.785 56.2725 172.745L55.8645 174.761C55.6565 175.769 55.4965 176.593 55.3845 177.233C55.2725 177.857 55.1685 178.609 55.0725 179.489L55.0005 180.137C56.7445 179.977 58.1285 179.873 59.1525 179.825C60.1925 179.761 61.2405 179.729 62.2965 179.729C62.4085 179.729 62.4885 179.769 62.5365 179.849C62.6005 179.929 62.6325 180.017 62.6325 180.113C62.6325 180.273 62.5685 180.425 62.4405 180.569C62.3285 180.697 62.1845 180.777 62.0085 180.809C61.4165 180.857 60.7925 180.889 60.1365 180.905C57.8325 180.985 56.0725 181.089 54.8565 181.217C54.6165 183.009 54.2805 185.025 53.8485 187.265C53.4165 189.489 53.0085 191.465 52.6245 193.193C52.4805 193.513 52.2645 193.673 51.9765 193.673Z" fill="white"/>
<path d="M63.2008 193.433C62.9768 193.433 62.8648 193.289 62.8648 193.001L63.4168 190.145L64.4248 185.081C64.8728 182.841 65.0968 181.721 65.0968 181.721C65.1608 181.369 65.2488 181.113 65.3608 180.953C65.4728 180.793 65.6168 180.713 65.7928 180.713C65.9528 180.713 66.0728 180.753 66.1528 180.833C66.2488 180.913 66.2968 181.057 66.2968 181.265C66.2968 181.633 66.1848 182.193 65.9608 182.945C65.8488 183.313 65.7688 183.625 65.7208 183.881C65.6568 184.105 65.5848 184.361 65.5048 184.649C65.4248 184.921 65.3368 185.241 65.2408 185.609C65.6728 184.633 66.0808 183.857 66.4648 183.281C66.8488 182.689 67.3288 182.129 67.9048 181.601C68.4488 181.137 68.9928 180.905 69.5368 180.905C69.9368 180.905 70.2728 180.993 70.5448 181.169C70.8168 181.329 70.9528 181.521 70.9528 181.745C70.9528 181.921 70.8888 182.065 70.7608 182.177C70.6328 182.273 70.4728 182.321 70.2808 182.321C70.1368 182.321 70.0008 182.289 69.8728 182.225C69.7768 182.145 69.6488 182.105 69.4888 182.105C69.2808 182.105 68.9768 182.249 68.5768 182.537C67.8248 183.081 67.1848 183.801 66.6568 184.697C66.1448 185.577 65.7368 186.473 65.4328 187.385C65.1448 188.281 64.8328 189.369 64.4968 190.649L64.2808 191.537C64.0408 192.801 63.6808 193.433 63.2008 193.433Z" fill="white"/>
<path d="M76.9641 193.625C76.4841 193.625 76.2441 192.985 76.2441 191.705C76.2441 191.033 76.3001 190.361 76.4121 189.689C76.5241 189.017 76.7001 188.145 76.9401 187.073L77.1321 186.185C76.8601 186.713 76.5401 187.385 76.1721 188.201C75.5161 189.545 74.8521 190.721 74.1801 191.729C73.5241 192.737 72.8681 193.241 72.2121 193.241C71.3481 193.241 70.9161 192.385 70.9161 190.673C70.9161 188.545 71.2601 186.057 71.9481 183.209L72.3321 181.745C72.4761 181.217 72.7241 180.953 73.0761 180.953C73.2681 180.953 73.4041 181.089 73.4841 181.361C73.4521 181.649 73.3881 181.993 73.2921 182.393C73.1961 182.793 73.1321 183.081 73.1001 183.257C72.7961 184.425 72.5481 185.593 72.3561 186.761C72.1641 187.913 72.0521 189.321 72.0201 190.985C72.0201 191.625 72.1241 191.945 72.3321 191.945C72.6361 191.945 73.0441 191.593 73.5561 190.889C74.0681 190.169 74.7001 189.081 75.4521 187.625C76.1881 186.041 76.8921 184.617 77.5641 183.353C78.2361 182.073 78.7641 181.433 79.1481 181.433C79.4201 181.433 79.5561 181.585 79.5561 181.889C79.5561 182.113 79.3561 182.745 78.9561 183.785C78.6521 184.569 78.4521 185.137 78.3561 185.489C77.7961 187.409 77.4441 189.505 77.3001 191.777C77.3001 191.985 77.3161 192.145 77.3481 192.257C77.3961 192.353 77.4681 192.457 77.5641 192.569C77.6761 192.681 77.7321 192.817 77.7321 192.977C77.7321 193.137 77.6441 193.281 77.4681 193.409C77.2921 193.553 77.1241 193.625 76.9641 193.625Z" fill="white"/>
<path d="M81.2314 193.289C80.6874 193.289 80.4154 192.849 80.4154 191.969C80.4154 191.745 80.4554 191.545 80.5354 191.369C80.6154 191.097 80.6874 190.785 80.7514 190.433L81.1114 188.825L81.5914 186.713C81.7514 185.929 81.9434 185.049 82.1674 184.073C82.1994 183.977 82.2314 183.817 82.2634 183.593C82.4234 182.905 82.5034 182.505 82.5034 182.393V182.153C82.5034 182.025 82.4474 181.761 82.3354 181.361C82.3354 181.169 82.3994 180.993 82.5274 180.833C82.6714 180.673 82.8394 180.593 83.0314 180.593C83.2074 180.593 83.3594 180.713 83.4874 180.953C83.6154 181.193 83.6794 181.457 83.6794 181.745C83.6794 182.065 83.3114 183.793 82.5754 186.929C81.8394 190.065 81.4714 191.729 81.4714 191.921C81.4714 192.097 81.5514 192.185 81.7114 192.185C81.7914 192.185 81.9354 192.081 82.1434 191.873C82.3354 191.681 82.4954 191.585 82.6234 191.585C82.8794 191.585 83.0074 191.745 83.0074 192.065C83.0074 192.257 82.8954 192.449 82.6714 192.641C82.4474 192.833 82.1914 192.985 81.9034 193.097C81.6154 193.225 81.3914 193.289 81.2314 193.289ZM83.6554 178.793C83.3994 178.793 83.2074 178.761 83.0794 178.697H82.9834C82.5194 178.697 82.2874 178.425 82.2874 177.881C82.2874 177.609 82.3994 177.361 82.6234 177.137C82.8634 176.913 83.1194 176.801 83.3914 176.801C83.6634 176.801 83.9194 176.897 84.1594 177.089C84.4314 177.361 84.5674 177.625 84.5674 177.881C84.5674 178.121 84.4714 178.337 84.2794 178.529C84.1034 178.705 83.8954 178.793 83.6554 178.793Z" fill="white"/>
<path d="M87.4202 193.145C86.8602 193.145 86.4362 193.001 86.1482 192.713C85.8762 192.425 85.7402 191.905 85.7402 191.153C85.7402 190.737 85.7882 190.257 85.8842 189.713L86.1002 188.345L86.3642 187.217L86.5082 186.569L86.8202 185.249C86.8522 185.041 86.9242 184.705 87.0362 184.241L87.1562 183.761L87.3722 182.729L87.5162 182.009C86.8922 182.009 86.3162 182.049 85.7882 182.129C85.4682 182.081 85.3082 181.945 85.3082 181.721C85.3082 181.561 85.3722 181.409 85.5002 181.265C85.6282 181.121 85.7802 181.041 85.9562 181.025L87.6842 181.073C87.6842 181.073 87.7242 180.873 87.8042 180.473C87.8362 180.153 87.9002 179.785 87.9962 179.369C88.0922 178.953 88.2122 178.585 88.3562 178.265C88.5002 177.913 88.7082 177.737 88.9802 177.737C89.2362 177.737 89.3642 177.881 89.3642 178.169V178.313C89.3002 178.633 89.2442 178.865 89.1962 179.009L88.7882 181.049H90.5162C91.1242 181.049 91.5002 181.097 91.6442 181.193C91.7722 181.289 91.8362 181.409 91.8362 181.553C91.8362 181.809 91.7162 181.977 91.4762 182.057C91.2522 182.121 90.8602 182.153 90.3002 182.153C89.7882 182.153 89.2202 182.129 88.5962 182.081C88.5002 182.609 88.1722 184.073 87.6122 186.473C87.1002 188.649 86.8442 190.025 86.8442 190.601C86.8442 191.225 86.9162 191.633 87.0602 191.825C87.1402 191.953 87.3082 192.017 87.5642 192.017C87.7882 192.017 87.9802 191.961 88.1402 191.849C88.3162 191.721 88.4922 191.553 88.6682 191.345C88.8442 191.121 88.9962 190.953 89.1242 190.841C89.2522 190.729 89.3882 190.673 89.5322 190.673C89.8522 190.673 90.0122 190.833 90.0122 191.153C90.0122 191.313 89.8522 191.577 89.5322 191.945C89.2122 192.313 88.9082 192.609 88.6202 192.833C88.3642 193.041 87.9642 193.145 87.4202 193.145Z" fill="white"/>
<path d="M99.9043 193.865C99.6643 193.865 99.5283 193.705 99.4963 193.385C100.04 191.097 100.88 187.897 102.016 183.785C102.128 183.417 102.28 182.865 102.472 182.129C101.96 182.273 101.608 182.441 101.416 182.633C101.224 182.825 101.128 183.073 101.128 183.377C101.128 183.601 101.088 183.777 101.008 183.905C100.944 184.017 100.792 184.073 100.552 184.073C100.216 184.073 100.048 183.841 100.048 183.377C100.048 182.785 100.256 182.321 100.672 181.985C101.088 181.633 101.784 181.329 102.76 181.073C103.192 179.265 103.632 176.273 104.08 172.097L104.272 170.393C104.32 170.009 104.552 169.817 104.968 169.817C105.128 169.817 105.24 169.849 105.304 169.913C105.368 169.977 105.392 170.081 105.376 170.225C105.184 172.497 104.704 176.009 103.936 180.761C106.304 180.153 109.352 179.761 113.08 179.585C113.448 176.881 113.888 174.137 114.4 171.353L114.592 170.153C114.624 169.977 114.704 169.841 114.832 169.745C114.976 169.633 115.128 169.577 115.288 169.577C115.4 169.577 115.496 169.617 115.576 169.697C115.656 169.761 115.696 169.857 115.696 169.985C115.696 170.049 115.568 170.865 115.312 172.433C114.672 176.385 114.296 178.761 114.184 179.561H116.872C117 179.561 117.096 179.609 117.16 179.705C117.24 179.785 117.28 179.881 117.28 179.993C117.28 180.121 117.224 180.257 117.112 180.401C117 180.529 116.864 180.617 116.704 180.665L114.016 180.641C113.92 181.409 113.672 182.817 113.272 184.865C112.936 186.657 112.68 188.129 112.504 189.281C112.328 190.417 112.216 191.537 112.168 192.641C112.152 192.833 112.064 192.993 111.904 193.121C111.76 193.249 111.616 193.313 111.472 193.313C111.232 193.313 111.096 193.145 111.064 192.809C111.128 190.969 111.568 188.009 112.384 183.929L112.6 182.801L112.936 180.689C109.224 180.833 106.128 181.241 103.648 181.913C103.248 183.545 102.72 185.513 102.064 187.817C101.392 190.217 100.896 192.073 100.576 193.385C100.4 193.705 100.176 193.865 99.9043 193.865Z" fill="white"/>
<path d="M123.806 193.625C123.326 193.625 123.086 192.985 123.086 191.705C123.086 191.033 123.142 190.361 123.254 189.689C123.366 189.017 123.542 188.145 123.782 187.073L123.974 186.185C123.702 186.713 123.382 187.385 123.014 188.201C122.358 189.545 121.694 190.721 121.022 191.729C120.366 192.737 119.71 193.241 119.054 193.241C118.19 193.241 117.758 192.385 117.758 190.673C117.758 188.545 118.102 186.057 118.79 183.209L119.174 181.745C119.318 181.217 119.566 180.953 119.918 180.953C120.11 180.953 120.246 181.089 120.326 181.361C120.294 181.649 120.23 181.993 120.134 182.393C120.038 182.793 119.974 183.081 119.942 183.257C119.638 184.425 119.39 185.593 119.198 186.761C119.006 187.913 118.894 189.321 118.862 190.985C118.862 191.625 118.966 191.945 119.174 191.945C119.478 191.945 119.886 191.593 120.398 190.889C120.91 190.169 121.542 189.081 122.294 187.625C123.03 186.041 123.734 184.617 124.406 183.353C125.078 182.073 125.606 181.433 125.99 181.433C126.262 181.433 126.398 181.585 126.398 181.889C126.398 182.113 126.198 182.745 125.798 183.785C125.494 184.569 125.294 185.137 125.198 185.489C124.638 187.409 124.286 189.505 124.142 191.777C124.142 191.985 124.158 192.145 124.19 192.257C124.238 192.353 124.31 192.457 124.406 192.569C124.518 192.681 124.574 192.817 124.574 192.977C124.574 193.137 124.486 193.281 124.31 193.409C124.134 193.553 123.966 193.625 123.806 193.625Z" fill="white"/>
<path d="M130.474 193.289C129.77 193.289 129.226 192.977 128.842 192.353C128.474 191.729 128.29 190.953 128.29 190.025C128.29 189.337 128.33 188.665 128.41 188.009C128.49 187.337 128.61 186.545 128.77 185.633L128.866 185.009C129.106 183.505 129.306 182.337 129.466 181.505C129.498 181.297 129.53 181.113 129.562 180.953C129.594 180.793 129.618 180.649 129.634 180.521C129.778 179.769 129.906 179.161 130.018 178.697C130.098 178.217 130.306 177.169 130.642 175.553C130.898 174.417 131.226 172.697 131.626 170.393C131.738 170.137 131.898 170.009 132.106 170.009C132.522 170.009 132.73 170.185 132.73 170.537L132.682 170.705C132.298 173.297 131.85 175.745 131.338 178.049C130.762 180.625 130.338 182.593 130.066 183.953C130.61 182.977 131.13 182.241 131.626 181.745C132.122 181.233 132.666 180.977 133.258 180.977C133.85 180.977 134.322 181.209 134.674 181.673C135.042 182.121 135.226 182.641 135.226 183.233C135.226 184.465 135.034 185.873 134.65 187.457C134.282 189.025 133.794 190.305 133.186 191.297C132.386 192.625 131.482 193.289 130.474 193.289ZM130.474 192.065C131.05 192.065 131.626 191.585 132.202 190.625C132.97 189.393 133.514 187.801 133.834 185.849C133.914 185.241 133.954 184.665 133.954 184.121C133.954 183.465 133.89 182.977 133.762 182.657C133.65 182.321 133.434 182.153 133.114 182.153C132.778 182.153 132.346 182.441 131.818 183.017C131.306 183.577 130.842 184.281 130.426 185.129C130.01 185.961 129.762 186.745 129.682 187.481C129.57 188.553 129.514 189.401 129.514 190.025C129.514 191.385 129.834 192.065 130.474 192.065Z" fill="white"/>
</svg>
